{
  "accessors": [
    {
      "bufferView": 1,
      "componentType": 5126,
      "count": 48614,
      "max": [
        1.0,
        -18.96232032775879,
        30.354379653930664
      ],
      "min": [
        -1.0,
        -55.88288116455078,
        -15.953060150146484
      ],
      "type": "VEC3"
    },
    {
      "bufferView": 1,
      "byteOffset": 583368,
      "componentType": 5126,
      "count": 48614,
      "max": [
        1.0,
        0.9999997019767761,
        1.0
      ],
      "min": [
        -1.0,
        -0.9999997019767761,
        -1.0
      ],
      "type": "VEC3"
    },
    {
      "bufferView": 0,
      "componentType": 5125,
      "count": 288000,
      "type": "SCALAR"
    }
  ],
  "asset": {
    "extras": {
      "author": "YouniqueĪdeaStudio (https://sketchfab.com/sinnervoncrawsz)",
      "license": "CC-BY-4.0 (http://creativecommons.org/licenses/by/4.0/)",
      "source": "https://sketchfab.com/3d-models/bench-bf1d1033eae0450c828ac9b30a53e96d",
      "title": "Bench"
    },
    "generator": "Sketchfab-12.66.0",
    "version": "2.0"
  },
  "bufferViews": [
    {
      "buffer": 0,
      "byteLength": 1152000,
      "name": "floatBufferViews",
      "target": 34963
    },
    {
      "buffer": 0,
      "byteLength": 1166736,
      "byteOffset": 1152000,
      "byteStride": 12,
      "name": "floatBufferViews",
      "target": 34962
    }
  ],
  "buffers": [
    {
      "byteLength": 2318736,
      "uri": "scene.bin"
    }
  ],
  "materials": [
    {
      "doubleSided": true,
      "name": "Material",
      "pbrMetallicRoughness": {
        "baseColorFactor": [
          0.8000000119,
          0.8000000119,
          0.8000000119,
          1.0
        ],
        "roughnessFactor": 0.0
      }
    }
  ],
  "meshes": [
    {
      "name": "BANCA_0",
      "primitives": [
        {
          "attributes": {
            "NORMAL": 1,
            "POSITION": 0
          },
          "indices": 2,
          "material": 0,
          "mode": 4
        }
      ]
    }
  ],
  "nodes": [
    {
      "children": [
        1
      ],
      "matrix": [
        1.0,
        0.0,
        0.0,
        0.0,
        0.0,
        2.220446049250313e-16,
        -1.0,
        0.0,
        0.0,
        1.0,
        2.220446049250313e-16,
        0.0,
        0.0,
        0.0,
        0.0,
        1.0
      ],
      "name": "Sketchfab_model"
    },
    {
      "children": [
        2,
        4
      ],
      "name": "Root"
    },
    {
      "children": [
        3
      ],
      "matrix": [
        -0.29086000000000006,
        0.9551700000000001,
        -0.05519000000000001,
        0.0,
        -0.7711,
        -0.19988000000000003,
        0.6045200000000001,
        0.0,
        0.5663900000000001,
        0.21839000000000003,
        0.7946700000000001,
        0.0,
        4.076250000000001,
        1.00545,
        5.903860000000001,
        1.0
      ],
      "name": "Lamp"
    },
    {
      "name": "Lamp"
    },
    {
      "children": [
        5
      ],
      "matrix": [
        1.5,
        0.0,
        0.0,
        0.0,
        0.0,
        0.025000000000000005,
        0.0,
        0.0,
        0.0,
        0.0,
        0.025000000000000005,
        0.0,
        -0.0,
        0.78021,
        0.3973400000000001,
        1.0
      ],
      "name": "BANCA"
    },
    {
      "mesh": 0,
      "name": "BANCA_0"
    }
  ],
  "scene": 0,
  "scenes": [
    {
      "name": "Sketchfab_Scene",
      "nodes": [
        0
      ]
    }
  ]
}
